<?xml version="1.0" encoding="utf-8"?>
<svg xmlns="http://www.w3.org/2000/svg" width="24" height="24" fill="none" viewBox="0 0 24 24" aria-hidden="true">
  <!-- Padlock body -->
  <path fill="currentColor" d="M6 10.5a1.5 1.5 0 0 1 1.5-1.5h9a1.5 1.5 0 0 1 1.5 1.5v6a1.5 1.5 0 0 1-1.5 1.5h-9A1.5 1.5 0 0 1 6 16.5v-6z" />
  <!-- Shackle -->
  <path fill="currentColor" d="M9 8.25V7a3 3 0 0 1 6 0v1.25h1.5V7a4.5 4.5 0 0 0-9 0v1.25H9z" />
  <!-- Keyhole (circle + small stem) -->
  <path fill="currentColor" d="M12 13.75a.75.75 0 1 0 0-1.5.75.75 0 0 0 0 1.5zM11.5 14.5h1v1h-1v-1z" />
  <!-- Password dots (three small circles) -->
  <path fill="currentColor" d="M7.25 14.25a.5.5 0 1 0 0-1 .5.5 0 0 0 0 1zM9.25 14.25a.5.5 0 1 0 0-1 .5.5 0 0 0 0 1zM11.25 14.25a.5.5 0 1 0 0-1 .5.5 0 0 0 0 1z" />
  <!-- Circular clockwise arrow on the right indicating "change" -->
  <path fill="currentColor" d="M17.5 8.25a4.25 4.25 0 1 0 .75 8.45v-1.5a.75.75 0 0 0-1.5 0v2.25c0 .414.336.75.75.75h2.25a.75.75 0 0 0 0-1.5H18.3A5.75 5.75 0 1 1 17.5 8.25z"/>
  <!-- Arrow head -->
  <path fill="currentColor" d="M19.5 6.5a.5.5 0 0 1 .354.854l-1.5 1.5a.5.5 0 1 1-.708-.708l1.5-1.5A.5.5 0 0 1 19.5 6.5z"/>
</svg>
