<svg width="153" height="153" viewBox="0 0 153 153" fill="none" xmlns="http://www.w3.org/2000/svg">
<g clip-path="url(#clip0_727_14715)">
<path d="M0 12C0 5.37258 5.37258 0 12 0H141C147.627 0 153 5.37258 153 12V141C153 147.627 147.627 153 141 153H12C5.37258 153 0 147.627 0 141V12Z" fill="#1A7FC7"/>
<path d="M124.121 72.779C125.151 71.6638 126.388 70.8567 127.831 70.3578C129.304 69.8588 131.027 69.6094 133 69.6094L131.763 75.9487C130.938 75.89 130.408 75.8606 130.173 75.8606C128.082 75.8606 126.403 76.3742 125.137 77.4014C123.9 78.4286 123.06 80.0281 122.619 82.1999L120.196 93.9897H113.286L118.157 69.9616H124.695L124.121 72.779Z" fill="#CDF86F"/>
<path d="M105.256 69.6094C108.643 69.6094 111.367 70.5339 113.429 72.3828C115.52 74.2318 116.565 76.8732 116.565 80.307C116.565 80.8939 116.55 81.3342 116.521 81.6276L98.1878 84.9734C98.8063 87.3213 100.794 88.4952 104.152 88.4952C105.389 88.4952 106.552 88.3191 107.642 87.9669C108.731 87.5854 110.318 86.7465 111.113 86.0128L113.984 90.5471C112.659 91.6037 110.498 92.6774 108.79 93.2057C107.082 93.7339 105.285 93.9981 103.401 93.9981C100.956 93.9981 98.8063 93.5725 96.9509 92.7214C95.1249 91.841 93.7113 90.5936 92.7099 88.9795C91.7381 87.3653 91.2521 85.5017 91.2521 83.3886C91.2521 80.7765 91.8411 78.4286 93.0192 76.3449C94.1972 74.2318 95.8465 72.5883 97.9669 71.4143C100.117 70.211 102.547 69.6094 105.256 69.6094ZM104.947 74.7601C103.091 74.7601 101.575 75.3177 100.397 76.4329C99.248 77.5482 98.497 79.045 98.1436 80.9233L110.16 78.7221C109.983 77.4601 109.423 76.4916 108.481 75.8166C107.568 75.1122 106.39 74.7601 104.947 74.7601Z" fill="#CDF86F"/>
<path d="M83.5952 69.6095C86.2458 69.6095 88.3515 70.3138 89.9124 71.7226C91.4733 73.1313 92.2538 75.127 92.2538 77.7097C92.2538 78.6488 92.1507 79.588 91.9445 80.5271L89.1541 93.9868H82.2626L84.9647 80.9674C85.0825 80.4684 85.1414 79.9255 85.1414 79.3385C85.1414 78.1059 84.8027 77.1667 84.1253 76.5211C83.4479 75.8754 82.4319 75.5526 81.0771 75.5526C79.3101 75.5526 77.8375 76.0662 76.6595 77.0934C75.5109 78.0912 74.7305 79.6027 74.3181 81.6277L71.8677 93.9734H64.9762L71.5792 60.981H78.4707L76.2619 72.1188C78.294 70.4459 80.7385 69.6095 83.5952 69.6095Z" fill="#CDF86F"/>
<path d="M59.6635 93.9982C56.8657 93.9982 54.6863 93.2939 53.1254 91.8851C51.5645 90.447 50.7841 88.3193 50.7841 85.5018L51.1941 67.2041H58.0857L57.6756 85.4138C57.6756 86.4116 57.9407 87.1893 58.4708 87.747C59.0009 88.2752 59.7224 88.5394 60.6354 88.5394C61.7251 88.5394 62.6528 88.2459 63.4185 87.6589L65.2739 92.5014C64.5671 93.0004 63.713 93.3819 62.7117 93.646C61.7398 93.8808 60.7238 93.9982 59.6635 93.9982ZM47.1174 75.7727V70.49H63.5952V75.7727H47.1174Z" fill="#CDF86F"/>
<path d="M38.5597 94.0002V69.7523C38.5597 67.0816 39.3549 64.9538 40.9452 63.369C42.5356 61.7548 44.8033 60.9478 47.7484 60.9478C48.7497 60.9478 49.7069 61.0505 50.6198 61.2559C51.5623 61.4614 52.3574 61.7842 53.0054 62.2244L51.1941 67.199C50.8113 66.9349 50.3842 66.7294 49.913 66.5827C49.4418 66.4359 48.9411 66.3626 48.411 66.3626C47.4097 66.3626 46.6292 66.6561 46.0697 67.243C45.5396 67.8007 45.2745 68.6518 45.2745 69.7964V71.9975L45.4512 74.9471V94.0002H38.5597ZM34.893 76.0916V70.4933H51.3708V76.0916H34.893Z" fill="#CDF86F"/>
<path d="M29.2922 93.9917V70.4916H36.1838V93.9917H29.2922ZM32.738 66.66C31.4716 66.66 30.4408 66.2931 29.6456 65.5594C28.8505 64.8257 28.4529 63.9159 28.4529 62.83C28.4529 61.7441 28.8505 60.8343 29.6456 60.1006C30.4408 59.3669 31.4716 59 32.738 59C34.0044 59 35.0352 59.3522 35.8303 60.0566C36.6255 60.7316 37.0231 61.612 37.0231 62.6979C37.0231 63.8425 36.6255 64.7964 35.8303 65.5594C35.0646 66.2931 34.0338 66.66 32.738 66.66Z" fill="#CDF86F"/>
<path d="M19.9999 93.9845V60.981H26.8914V93.9845H19.9999Z" fill="#CDF86F"/>
</g>
<defs>
<clipPath id="clip0_727_14715">
<rect width="153" height="153" rx="25" fill="white"/>
</clipPath>
</defs>
</svg>
